<svg width="193" height="249" viewBox="0 0 193 249" fill="none" xmlns="http://www.w3.org/2000/svg">
<g filter="url(#filter0_b)">
<path d="M193 91.5C193 117.397 193 151 193 180C193 198.5 168.745 249 136.913 249C80.4217 249 0.153809 196.159 0.153809 136.833C0.153809 77.5065 61.0085 3.66971e-05 117.5 3.66971e-05C145.178 3.66971e-05 175.5 -5.9108e-06 193 6.95941e-07C193 31 193 91.5 193 91.5Z" fill="url(#paint0_linear)" fill-opacity="0.6"/>
<path d="M117.5 0.250037L192.75 0.250001V0.364627V0.547943V0.731922V0.91656V1.10185V1.2878V1.47439V1.66162V1.8495V2.038V2.22714V2.41691V2.6073V2.79831V2.98993V3.18216V3.375V3.56845V3.76249V3.95713V4.15235V4.34817V4.54456V4.74154V4.93909V5.13721V5.3359V5.53515V5.73496V5.93532V6.13623V6.33769V6.53969V6.74223V6.94531V7.14891V7.35305V7.5577V7.76287V7.96856V8.17476V8.38146V8.58866V8.79637V9.00456V9.21325V9.42243V9.63208V9.84222V10.0528V10.2639V10.4754V10.6875V10.8999V11.1128V11.3262V11.54V11.7543V11.969V12.1841V12.3996V12.6156V12.832V13.0489V13.2661V13.4837V13.7018V13.9202V14.1391V14.3583V14.578V14.798V15.0184V15.2392V15.4603V15.6818V15.9037V16.126V16.3486V16.5715V16.7948V17.0185V17.2425V17.4668V17.6915V17.9165V18.1418V18.3674V18.5934V18.8197V19.0462V19.2731V19.5003V19.7278V19.9556V20.1836V20.412V20.6406V20.8695V21.0987V21.3281V21.5579V21.7878V22.0181V22.2486V22.4793V22.7103V22.9415V23.1729V23.4046V23.6365V23.8687V24.101V24.3336V24.5664V24.7994V25.0326V25.266V25.4996V25.7334V25.9674V26.2016V26.4359V26.6704V26.9051V27.14V27.375V27.6102V27.8455V28.081V28.3167V28.5525V28.7884V29.0245V29.2606V29.497V29.7334V29.97V30.2067V30.4435V30.6804V30.9174V31.1545V31.3917V31.629V31.8664V32.1038V32.3414V32.579V32.8167V33.0545V33.2923V33.5302V33.7681V34.0061V34.2441V34.4822V34.7203V34.9585V35.1967V35.4349V35.6731V35.9114V36.1497V36.388V36.6263V36.8646V37.1029V37.3411V37.5794V37.8177V38.056V38.2942V38.5324V38.7706V39.0087V39.2468V39.4849V39.7229V39.9609V40.1988V40.4367V40.6745V40.9122V41.1499V41.3875V41.625V41.8624V42.0998V42.3371V42.5742V42.8113V43.0483V43.2851V43.5219V43.7585V43.9951V44.2315V44.4677V44.7039V44.9399V45.1758V45.4115V45.6471V45.8826V46.1178V46.353V46.5879V46.8227V47.0574V47.2918V47.5261V47.7602V47.9941V48.2279V48.4614V48.6947V48.9279V49.1608V49.3935V49.626V49.8583V50.0903V50.3222V50.5538V50.7852V51.0163V51.2472V51.4778V51.7082V51.9384V52.1682V52.3979V52.6272V52.8563V53.0851V53.3136V53.5419V53.7698V53.9975V54.2249V54.452V54.6788V54.9052V55.1314V55.3572V55.5828V55.808V56.0328V56.2574V56.4816V56.7055V56.929V57.1522V57.375V57.5975V57.8196V58.0414V58.2628V58.4838V58.7044V58.9247V59.1446V59.3641V59.5832V59.8019V60.0202V60.2381V60.4556V60.6727V60.8894V61.1056V61.3214V61.5368V61.7518V61.9664V62.1805V62.3941V62.6073V62.8201V63.0324V63.2442V63.4556V63.6665V63.877V64.0869V64.2964V64.5054V64.7139V64.9219V65.1295V65.3365V65.543V65.749V65.9545V66.1595V66.364V66.5679V66.7714V66.9742V67.1766V67.3784V67.5797V67.7804V67.9806V68.1802V68.3792V68.5777V68.7756V68.973V69.1697V69.3659V69.5615V69.7565V69.951V70.1448V70.338V70.5307V70.7227V70.9141V71.1049V71.295V71.4846V71.6735V71.8618V72.0494V72.2364V72.4228V72.6085V72.7936V72.978V73.1617V73.3448V73.5272V73.7089V73.89V74.0704V74.2501V74.4291V74.6074V74.785V74.9619V75.1381V75.3137V75.4884V75.6625V75.8359V76.0085V76.1804V76.3516V76.522V76.6917V76.8606V77.0288V77.1963V77.3629V77.5289V77.694V77.8584V78.022V78.1849V78.3469V78.5082V78.6687V78.8284V78.9873V79.1453V79.3026V79.4591V79.6148V79.7696V79.9236V80.0768V80.2292V80.3807V80.5314V80.6813V80.8303V80.9785V81.1258V81.2722V81.4178V81.5625V81.7064V81.8493V81.9914V82.1327V82.273V82.4124V82.551V82.6886V82.8254V82.9612V83.0962V83.2302V83.3633V83.4955V83.6267V83.757V83.8864V84.0149V84.1424V84.269V84.3946V84.5192V84.6429V84.7657V84.8874V85.0082V85.1281V85.2469V85.3648V85.4816V85.5975V85.7124V85.8263V85.9392V86.0511V86.162V86.2718V86.3807V86.4885V86.5953V86.701V86.8058V86.9095V87.0121V87.1137V87.2143V87.3138V87.4122V87.5096V87.6059V87.7011V87.7953V87.8883V87.9803V88.0713V88.1611V88.2498V88.3374V88.4239V88.5094V88.5937V88.6768V88.7589V88.8399V88.9197V88.9984V89.0759V89.1523V89.2276V89.3017V89.3747V89.4465V89.5172V89.5867V89.655V89.7221V89.7881V89.8529V89.9165V89.979V90.0402V90.1002V90.1591V90.2167V90.2731V90.3284V90.3824V90.4352V90.4867V90.537V90.5861V90.634V90.6806V90.726V90.7701V90.813V90.8546V90.895V90.9341V90.9719V91.0085V91.0438V91.0778V91.1105V91.1419V91.1721V91.2009V91.2284V91.2547V91.2796V91.3032V91.3255V91.3465V91.3662V91.3845V91.4015V91.4171V91.4315V91.4444V91.4561V91.4663V91.4752V91.4828V91.489V91.4938V91.4973V91.4993C192.75 91.4998 192.75 91.5 193 91.5H192.75V91.6518V91.8039V91.956V92.1084V92.2609V92.4136V92.5665V92.7195V92.8727V93.0261V93.1797V93.3334V93.4873V93.6414V93.7956V93.95V94.1046V94.2594V94.4143V94.5693V94.7246V94.88V95.0356V95.1913V95.3472V95.5032V95.6595V95.8158V95.9724V96.1291V96.2859V96.443V96.6001V96.7575V96.915V97.0726V97.2304V97.3884V97.5465V97.7048V97.8632V98.0218V98.1806V98.3395V98.4985V98.6577V98.817V98.9765V99.1362V99.296V99.4559V99.616V99.7763V99.9366V100.097V100.258V100.419V100.58V100.741V100.902V101.063V101.225V101.387V101.548V101.71V101.873V102.035V102.197V102.36V102.522V102.685V102.848V103.011V103.174V103.338V103.501V103.665V103.829V103.993V104.157V104.321V104.485V104.649V104.814V104.979V105.143V105.308V105.473V105.639V105.804V105.969V106.135V106.301V106.467V106.633V106.799V106.965V107.131V107.298V107.464V107.631V107.798V107.965V108.132V108.299V108.466V108.633V108.801V108.969V109.136V109.304V109.472V109.64V109.809V109.977V110.145V110.314V110.483V110.651V110.82V110.989V111.158V111.327V111.497V111.666V111.836V112.005V112.175V112.345V112.515V112.685V112.855V113.026V113.196V113.366V113.537V113.708V113.878V114.049V114.22V114.391V114.563V114.734V114.905V115.077V115.248V115.42V115.592V115.764V115.936V116.108V116.28V116.452V116.624V116.797V116.969V117.142V117.315V117.487V117.66V117.833V118.006V118.179V118.353V118.526V118.699V118.873V119.046V119.22V119.394V119.568V119.742V119.915V120.09V120.264V120.438V120.612V120.787V120.961V121.136V121.31V121.485V121.66V121.834V122.009V122.184V122.359V122.535V122.71V122.885V123.06V123.236V123.411V123.587V123.763V123.938V124.114V124.29V124.466V124.642V124.818V124.994V125.17V125.346V125.523V125.699V125.875V126.052V126.229V126.405V126.582V126.759V126.935V127.112V127.289V127.466V127.643V127.82V127.997V128.175V128.352V128.529V128.706V128.884V129.061V129.239V129.416V129.594V129.772V129.949V130.127V130.305V130.483V130.661V130.839V131.017V131.195V131.373V131.551V131.729V131.908V132.086V132.264V132.443V132.621V132.8V132.978V133.157V133.335V133.514V133.692V133.871V134.05V134.229V134.407V134.586V134.765V134.944V135.123V135.302V135.481V135.66V135.839V136.018V136.197V136.377V136.556V136.735V136.914V137.094V137.273V137.452V137.632V137.811V137.99V138.17V138.349V138.529V138.708V138.888V139.068V139.247V139.427V139.606V139.786V139.966V140.145V140.325V140.505V140.685V140.864V141.044V141.224V141.404V141.583V141.763V141.943V142.123V142.303V142.483V142.663V142.843V143.023V143.202V143.382V143.562V143.742V143.922V144.102V144.282V144.462V144.642V144.822V145.002V145.182V145.362V145.542V145.722V145.902V146.082V146.262V146.442V146.622V146.802V146.982V147.162V147.342V147.522V147.702V147.882V148.062V148.242V148.422V148.602V148.782V148.962V149.142V149.322V149.502V149.682V149.862V150.041V150.221V150.401V150.581V150.761V150.941V151.12V151.3V151.48V151.66V151.84V152.019V152.199V152.379V152.558V152.738V152.918V153.097V153.277V153.456V153.636V153.815V153.995V154.174V154.354V154.533V154.713V154.892V155.071V155.251V155.43V155.609V155.789V155.968V156.147V156.326V156.505V156.684V156.863V157.042V157.221V157.4V157.579V157.758V157.937V158.116V158.295V158.473V158.652V158.831V159.009V159.188V159.366V159.545V159.723V159.902V160.08V160.258V160.437V160.615V160.793V160.971V161.15V161.328V161.506V161.684V161.862V162.039V162.217V162.395V162.573V162.75V162.928V163.106V163.283V163.461V163.638V163.815V163.993V164.17V164.347V164.524V164.701V164.878V165.055V165.232V165.409V165.586V165.763V165.939V166.116V166.293V166.469V166.646V166.822V166.998V167.174V167.351V167.527V167.703V167.879V168.055V168.231V168.406V168.582V168.758V168.933V169.109V169.284V169.46V169.635V169.81V169.985V170.16V170.335V170.51V170.685V170.86V171.035V171.209V171.384V171.558V171.733V171.907V172.081V172.255V172.429V172.603V172.777V172.951V173.125V173.298V173.472V173.645V173.819V173.992V174.165V174.339V174.512V174.685V174.857V175.03V175.203V175.376V175.548V175.72V175.893V176.065V176.237V176.409V176.581V176.753V176.925V177.097V177.268V177.44V177.611V177.782V177.954V178.125V178.296V178.467V178.637V178.808V178.979V179.149V179.319V179.49V179.66V179.83V180C192.75 184.581 191.246 191.174 188.479 198.498C185.714 205.816 181.696 213.846 176.686 221.298C166.654 236.22 152.697 248.75 136.913 248.75C108.735 248.75 74.5967 235.566 47.5005 214.965C20.4005 194.36 0.403809 166.383 0.403809 136.833C0.403809 107.245 15.5843 73.0917 37.8348 46.3288C60.089 19.5616 89.3619 0.250037 117.5 0.250037Z" stroke="url(#paint1_linear)" stroke-opacity="0.6" stroke-width="0.5"/>
</g>
<defs>
<filter id="filter0_b" x="-7.84619" y="-8" width="208.846" height="265" filterUnits="userSpaceOnUse" color-interpolation-filters="sRGB">
<feFlood flood-opacity="0" result="BackgroundImageFix"/>
<feGaussianBlur in="BackgroundImage" stdDeviation="4"/>
<feComposite in2="SourceAlpha" operator="in" result="effect1_backgroundBlur"/>
<feBlend mode="normal" in="SourceGraphic" in2="effect1_backgroundBlur" result="shape"/>
</filter>
<linearGradient id="paint0_linear" x1="64.1539" y1="12.7714" x2="206.862" y2="222.739" gradientUnits="userSpaceOnUse">
<stop stop-color="#8EF6F6" stop-opacity="0.84"/>
<stop offset="1" stop-color="#8EF6F6" stop-opacity="0.2"/>
</linearGradient>
<linearGradient id="paint1_linear" x1="182.633" y1="235.071" x2="37.1764" y2="24.1608" gradientUnits="userSpaceOnUse">
<stop stop-color="#8EF6F6"/>
<stop offset="0.0001" stop-color="white" stop-opacity="0.8125"/>
<stop offset="1" stop-color="#8EF6F6" stop-opacity="0"/>
</linearGradient>
</defs>
</svg>
