<svg width="75" height="76" viewBox="0 0 75 76" fill="none" xmlns="http://www.w3.org/2000/svg">
<g clip-path="url(#clip0)">
<path d="M37.7742 12.1786C32.2193 12.1291 26.866 14.2571 22.861 18.1066C18.856 21.9562 16.5179 27.2212 16.3476 32.7737C16.2136 37.3487 17.5786 41.842 20.2347 45.5694C23.0434 49.5877 24.5262 54.3833 24.4758 59.2856V64.9352C24.4757 65.0843 24.5082 65.2316 24.5709 65.3668C24.6337 65.502 24.7252 65.6219 24.839 65.7181L28.5679 68.8722V72.7188C28.5689 73.5148 28.8856 74.2779 29.4486 74.8406C30.0116 75.4033 30.7749 75.7195 31.5709 75.72H43.4291C44.225 75.7192 44.988 75.4027 45.5508 74.84C46.1136 74.2772 46.4301 73.5141 46.4308 72.7183V68.8716L50.1597 65.7175C50.2736 65.6213 50.3651 65.5014 50.4279 65.3662C50.4906 65.231 50.5231 65.0837 50.523 64.9347V59.2833C50.5242 54.3099 52.0516 49.4567 54.8988 45.379C57.0826 42.2231 58.367 38.5328 58.6145 34.703C58.8621 30.8732 58.0635 27.0482 56.3043 23.6375C54.545 20.2267 51.8913 17.3585 48.6272 15.3401C45.3632 13.3216 41.6116 12.2288 37.7742 12.1786ZM45.0304 67.3739H29.9718L27.0105 64.8696H47.9918L45.0304 67.3739ZM48.4728 62.8188H26.5271V60.3098H48.4728V62.8188ZM44.3806 72.7212C44.3803 72.9733 44.28 73.215 44.1018 73.3933C43.9235 73.5716 43.6818 73.6718 43.4297 73.6722H31.5709C31.3188 73.6718 31.077 73.5716 30.8988 73.3933C30.7205 73.215 30.6202 72.9733 30.6199 72.7212V69.4247H44.3801L44.3806 72.7212ZM53.2136 44.2106C50.3281 48.3452 48.6897 53.221 48.4927 58.2591H26.5084C26.367 53.2822 24.767 48.4566 21.907 44.3811C19.5102 41.0156 18.2782 36.9594 18.3984 32.8294C18.5485 27.8562 20.6253 23.1359 24.1902 19.6652C27.7551 16.1944 32.5292 14.2446 37.5047 14.2276H37.7478C41.2134 14.2725 44.6016 15.2589 47.5496 17.0814C50.4976 18.904 52.8945 21.4939 54.4836 24.574C56.0728 27.654 56.7944 31.1083 56.5712 34.567C56.348 38.0257 55.1884 41.3586 53.2166 44.2089L53.2136 44.2106Z" fill="#8EF6F6"/>
<path d="M48.7758 33.346C48.4949 32.1897 48.0386 31.0831 47.4228 30.0648L48.767 28.7201C48.8623 28.6249 48.9379 28.5119 48.9895 28.3874C49.0411 28.263 49.0676 28.1297 49.0676 27.995C49.0676 27.8603 49.0411 27.7269 48.9895 27.6025C48.9379 27.4781 48.8623 27.3651 48.767 27.2699L46.3266 24.8294C46.2314 24.7341 46.1184 24.6585 45.9939 24.607C45.8695 24.5554 45.7362 24.5288 45.6015 24.5288C45.4668 24.5288 45.3334 24.5554 45.209 24.607C45.0846 24.6585 44.9715 24.7341 44.8764 24.8294L43.5398 26.166C42.521 25.5448 41.4127 25.0837 40.2539 24.799V22.9128C40.2539 22.6409 40.1459 22.3801 39.9536 22.1878C39.7613 21.9955 39.5005 21.8875 39.2285 21.8875H35.7744C35.5025 21.8875 35.2417 21.9955 35.0494 22.1878C34.8571 22.3801 34.749 22.6409 34.749 22.9128V24.799C33.5892 25.0835 32.4799 25.5445 31.4602 26.166L30.123 24.8289C30.0279 24.7336 29.9148 24.658 29.7904 24.6064C29.666 24.5548 29.5326 24.5282 29.3979 24.5282C29.2633 24.5282 29.1299 24.5548 29.0055 24.6064C28.8811 24.658 28.768 24.7336 28.6729 24.8289L26.2324 27.2693C26.1371 27.3645 26.0615 27.4775 26.0099 27.6019C25.9584 27.7263 25.9318 27.8597 25.9318 27.9944C25.9318 28.1291 25.9584 28.2624 26.0099 28.3869C26.0615 28.5113 26.1371 28.6243 26.2324 28.7195L27.5766 30.0642C26.9608 31.0825 26.5045 32.1891 26.2236 33.3455H24.3164C24.0445 33.3455 23.7836 33.4535 23.5913 33.6458C23.399 33.8381 23.291 34.0989 23.291 34.3709V37.822C23.291 38.094 23.399 38.3548 23.5913 38.5471C23.7836 38.7394 24.0445 38.8474 24.3164 38.8474H26.24C26.5247 39.9968 26.9831 41.0959 27.5994 42.107L26.2324 43.474C26.1371 43.5692 26.0615 43.6822 26.0099 43.8066C25.9584 43.931 25.9318 44.0644 25.9318 44.1991C25.9318 44.3338 25.9584 44.4671 26.0099 44.5915C26.0615 44.716 26.1371 44.829 26.2324 44.9242L28.6729 47.3646C28.8687 47.55 29.1282 47.6534 29.3979 47.6534C29.6677 47.6534 29.9272 47.55 30.123 47.3646L31.4977 45.99C32.5062 46.5998 33.6015 47.053 34.7461 47.3341V49.28C34.7461 49.552 34.8541 49.8128 35.0464 50.0051C35.2387 50.1974 35.4995 50.3054 35.7715 50.3054H39.2232C39.4952 50.3054 39.756 50.1974 39.9483 50.0051C40.1406 49.8128 40.2486 49.552 40.2486 49.28V47.3341C41.3942 47.0533 42.4905 46.6001 43.5 45.99L44.8746 47.3646C44.9698 47.4599 45.0828 47.5355 45.2072 47.5871C45.3317 47.6387 45.465 47.6652 45.5997 47.6652C45.7344 47.6652 45.8678 47.6387 45.9922 47.5871C46.1166 47.5355 46.2296 47.4599 46.3248 47.3646L48.7652 44.9242C48.8605 44.829 48.9361 44.716 48.9877 44.5915C49.0393 44.4671 49.0658 44.3338 49.0658 44.1991C49.0658 44.0644 49.0393 43.931 48.9877 43.8066C48.9361 43.6822 48.8605 43.5692 48.7652 43.474L47.4023 42.107C48.0186 41.0961 48.477 39.9971 48.7617 38.848H50.6836C50.9555 38.848 51.2164 38.74 51.4087 38.5477C51.601 38.3554 51.709 38.0946 51.709 37.8226V34.3714C51.709 34.0995 51.601 33.8387 51.4087 33.6464C51.2164 33.4541 50.9555 33.346 50.6836 33.346H48.7758ZM49.6582 36.7972H47.9262C47.6835 36.7971 47.4487 36.8831 47.2636 37.0398C47.0784 37.1966 46.9548 37.414 46.9148 37.6533C46.6712 39.091 46.1018 40.4539 45.2502 41.6376C45.1068 41.8355 45.0388 42.0781 45.0584 42.3216C45.0781 42.5652 45.1841 42.7937 45.3574 42.966L46.5926 44.1964L45.6023 45.1867L44.3631 43.9468C44.1915 43.7751 43.9645 43.6698 43.7225 43.6498C43.4806 43.6297 43.2394 43.6961 43.0418 43.8373C41.8564 44.6823 40.4936 45.2455 39.0574 45.4837C38.8179 45.5242 38.6006 45.6483 38.4441 45.8341C38.2876 46.0198 38.2022 46.2551 38.2031 46.498V48.2558H36.7969V46.498C36.7973 46.2552 36.7114 46.0201 36.5547 45.8347C36.3979 45.6492 36.1803 45.5255 35.9408 45.4855C34.5047 45.2472 33.1419 44.6841 31.9564 43.839C31.7589 43.6979 31.5177 43.6315 31.2757 43.6515C31.0338 43.6716 30.8068 43.7769 30.6352 43.9486L29.3959 45.1884L28.4057 44.1982L29.6426 42.966C29.815 42.7939 29.9204 42.5661 29.9401 42.3233C29.9597 42.0805 29.8923 41.8387 29.7498 41.6412C28.8982 40.4574 28.3288 39.0945 28.0852 37.6568C28.0452 37.4175 27.9216 37.2001 27.7364 37.0433C27.5513 36.8866 27.3165 36.8006 27.0738 36.8007H25.3418V35.4003H27.0627C27.3063 35.4004 27.5421 35.3137 27.7276 35.1557C27.9131 34.9978 28.0364 34.779 28.0752 34.5384C28.3111 33.093 28.876 31.7212 29.7264 30.5289C29.8675 30.3313 29.9339 30.0901 29.9139 29.8481C29.8938 29.6062 29.7885 29.3792 29.6168 29.2076L28.4074 27.9982L29.3977 27.008L30.6023 28.2126C30.7745 28.3849 31.0023 28.4903 31.245 28.51C31.4878 28.5296 31.7296 28.4622 31.9271 28.3199C33.1186 27.4622 34.4919 26.8911 35.9402 26.6511C36.1804 26.6111 36.3985 26.4868 36.5554 26.3007C36.7124 26.1145 36.798 25.8786 36.7969 25.6351V23.9359H38.2031V25.6351C38.2031 25.8783 38.2896 26.1136 38.447 26.299C38.6045 26.4843 38.8227 26.6077 39.0627 26.647C40.5101 26.8879 41.8824 27.4596 43.0729 28.3175C43.2704 28.4601 43.5122 28.5276 43.755 28.508C43.9978 28.4883 44.2257 28.3828 44.3977 28.2103L45.6023 27.0056L46.5926 27.9958L45.3832 29.2052C45.2115 29.3768 45.1062 29.6038 45.0861 29.8458C45.0661 30.0877 45.1325 30.329 45.2736 30.5265C46.124 31.7189 46.6889 33.0907 46.9248 34.5361C46.9636 34.7766 47.0869 34.9955 47.2724 35.1534C47.4579 35.3113 47.6937 35.3981 47.9373 35.398H49.6582V36.7972Z" fill="#8EF6F6"/>
<path d="M37.4999 28.8596C36.0745 28.8596 34.6811 29.2823 33.4959 30.0742C32.3107 30.8661 31.3869 31.9917 30.8415 33.3086C30.296 34.6255 30.1532 36.0746 30.4313 37.4727C30.7094 38.8707 31.3958 40.1549 32.4037 41.1628C33.4117 42.1707 34.6958 42.8571 36.0939 43.1352C37.4919 43.4133 38.941 43.2705 40.2579 42.7251C41.5748 42.1796 42.7004 41.2558 43.4923 40.0707C44.2842 38.8855 44.7069 37.4921 44.7069 36.0666C44.7043 34.156 43.9441 32.3244 42.5931 30.9734C41.2421 29.6224 39.4105 28.8623 37.4999 28.8596ZM37.4999 41.2264C36.4801 41.2264 35.4832 40.924 34.6352 40.3574C33.7873 39.7908 33.1264 38.9855 32.7361 38.0434C32.3459 37.1012 32.2438 36.0644 32.4427 35.0642C32.6417 34.064 33.1328 33.1453 33.8539 32.4241C34.575 31.703 35.4937 31.2119 36.494 31.013C37.4942 30.814 38.5309 30.9161 39.4731 31.3064C40.4153 31.6967 41.2206 32.3576 41.7872 33.2055C42.3537 34.0534 42.6561 35.0504 42.6561 36.0702C42.6543 37.4372 42.1105 38.7477 41.1439 39.7143C40.1773 40.681 38.8669 41.225 37.4999 41.227V41.2264Z" fill="#8EF6F6"/>
<path d="M37.5 8.67876C37.772 8.67876 38.0328 8.57073 38.2251 8.37843C38.4174 8.18613 38.5254 7.92532 38.5254 7.65337V1.74536C38.5254 1.47341 38.4174 1.2126 38.2251 1.0203C38.0328 0.828003 37.772 0.719971 37.5 0.719971C37.228 0.719971 36.9672 0.828003 36.7749 1.0203C36.5826 1.2126 36.4746 1.47341 36.4746 1.74536V7.65337C36.4746 7.92532 36.5826 8.18613 36.7749 8.37843C36.9672 8.57073 37.228 8.67876 37.5 8.67876Z" fill="#8EF6F6"/>
<path d="M62.5665 11.7034L58.3887 15.8812C58.2935 15.9764 58.218 16.0894 58.1664 16.2138C58.1149 16.3382 58.0884 16.4716 58.0884 16.6063C58.0884 16.7409 58.1149 16.8743 58.1664 16.9987C58.218 17.1231 58.2935 17.2361 58.3887 17.3314C58.4839 17.4266 58.597 17.5021 58.7214 17.5536C58.8458 17.6052 58.9792 17.6317 59.1138 17.6317C59.2485 17.6317 59.3818 17.6052 59.5062 17.5536C59.6307 17.5021 59.7437 17.4266 59.8389 17.3314L64.0166 13.1536C64.1119 13.0584 64.1874 12.9454 64.2389 12.8209C64.2905 12.6965 64.317 12.5632 64.317 12.4285C64.317 12.2939 64.2905 12.1605 64.2389 12.0361C64.1874 11.9117 64.1119 11.7986 64.0166 11.7034C63.9214 11.6082 63.8084 11.5327 63.684 11.4811C63.5596 11.4296 63.4262 11.4031 63.2916 11.4031C63.1569 11.4031 63.0235 11.4296 62.8991 11.4811C62.7747 11.5327 62.6617 11.6082 62.5665 11.7034Z" fill="#8EF6F6"/>
<path d="M73.9747 37.1946H68.0666C67.7947 37.1946 67.5339 37.3026 67.3416 37.4949C67.1493 37.6872 67.0413 37.948 67.0413 38.22C67.0413 38.4919 67.1493 38.7527 67.3416 38.945C67.5339 39.1373 67.7947 39.2454 68.0666 39.2454H73.9747C74.2466 39.2454 74.5074 39.1373 74.6997 38.945C74.892 38.7527 75 38.4919 75 38.22C75 37.948 74.892 37.6872 74.6997 37.4949C74.5074 37.3026 74.2466 37.1946 73.9747 37.1946Z" fill="#8EF6F6"/>
<path d="M6.9334 37.1946H1.02539C0.75344 37.1946 0.492628 37.3026 0.30033 37.4949C0.108032 37.6872 0 37.948 0 38.22C0 38.4919 0.108032 38.7527 0.30033 38.945C0.492628 39.1373 0.75344 39.2454 1.02539 39.2454H6.9334C7.20535 39.2454 7.46616 39.1373 7.65846 38.945C7.85076 38.7527 7.95879 38.4919 7.95879 38.22C7.95879 37.948 7.85076 37.6872 7.65846 37.4949C7.46616 37.3026 7.20535 37.1946 6.9334 37.1946Z" fill="#8EF6F6"/>
<path d="M16.6113 15.8812L12.4335 11.7034C12.2412 11.5111 11.9804 11.4031 11.7084 11.4031C11.4365 11.4031 11.1756 11.5111 10.9833 11.7034C10.791 11.8957 10.683 12.1566 10.683 12.4285C10.683 12.7005 10.791 12.9613 10.9833 13.1536L15.1611 17.3314C15.3534 17.5237 15.6142 17.6317 15.8862 17.6317C16.1581 17.6317 16.419 17.5237 16.6113 17.3314C16.8036 17.139 16.9116 16.8782 16.9116 16.6063C16.9116 16.3343 16.8036 16.0735 16.6113 15.8812Z" fill="#8EF6F6"/>
</g>
<defs>
<clipPath id="clip0">
<rect width="75" height="75" fill="white" transform="translate(0 0.719971)"/>
</clipPath>
</defs>
</svg>
