<svg width="76" height="76" viewBox="0 0 76 76" fill="none" xmlns="http://www.w3.org/2000/svg">
<path d="M31.4398 17.1286C31.1433 16.376 30.2941 16.0064 29.5425 16.3038C25.3001 17.9806 21.6794 20.8586 19.0721 24.6267C16.4022 28.4849 14.9912 33.0142 14.9912 37.7248C14.9912 38.5339 15.6462 39.1895 16.4537 39.1895C17.2612 39.1895 17.9162 38.5337 17.9162 37.7248C17.9162 29.4169 22.9012 22.0783 30.6162 19.029C31.3677 18.7319 31.7363 17.8813 31.4398 17.1286Z" fill="#8EF6F6"/>
<path d="M47.6137 36.2741C46.806 36.2741 46.1512 36.9299 46.1512 37.7388C46.1512 42.2617 42.4771 45.9415 37.9609 45.9415C33.4448 45.9415 29.7707 42.2618 29.7707 37.7388C29.7707 33.2159 33.4448 29.5361 37.9609 29.5361C38.7686 29.5361 39.4234 28.8803 39.4234 28.0714C39.4234 27.2624 38.7685 26.6067 37.9609 26.6067C31.8319 26.6067 26.8457 31.6005 26.8457 37.7388C26.8457 43.8771 31.8321 48.8709 37.9609 48.8709C44.0898 48.8709 49.0762 43.8771 49.0762 37.7388C49.0762 36.9299 48.4214 36.2741 47.6137 36.2741Z" fill="#8EF6F6"/>
<path d="M53.0355 36.2185C52.2278 36.2185 51.573 36.8743 51.573 37.6832V37.7384C51.573 38.5475 52.228 39.2031 53.0355 39.2031C53.843 39.2031 54.498 38.5473 54.498 37.7384V37.6832C54.498 36.8743 53.843 36.2185 53.0355 36.2185Z" fill="#8EF6F6"/>
<path d="M47.1172 49.5774C46.8453 49.3035 46.4679 49.1482 46.0832 49.1482C45.6986 49.1483 45.3213 49.3036 45.0492 49.5774C44.7771 49.8499 44.6206 50.2263 44.6206 50.613C44.6206 50.9983 44.777 51.3762 45.0492 51.6487C45.3213 51.9212 45.6971 52.0764 46.0832 52.0764C46.4679 52.0764 46.8453 51.9212 47.1172 51.6487C47.3892 51.3762 47.5459 50.9983 47.5459 50.613C47.5459 50.2262 47.3894 49.8499 47.1172 49.5774Z" fill="#8EF6F6"/>
<path d="M70.4483 53.331C69.6082 53.331 68.8166 53.5415 68.1218 53.9115L63.7936 49.5768C63.5193 49.3021 63.1473 49.1477 62.7594 49.1477H52.0948C51.2871 49.1477 50.6323 49.8035 50.6323 50.6124C50.6323 51.4214 51.2873 52.0771 52.0948 52.0771H62.1534L66.0538 55.9834C65.6853 56.6786 65.4755 57.4705 65.4755 58.3109C65.4755 61.0571 67.7062 63.2911 70.4482 63.2911C73.1901 63.2911 75.4208 61.0571 75.4208 58.3109C75.4209 55.5649 73.1901 53.331 70.4483 53.331ZM70.4483 60.3619C69.3192 60.3619 68.4008 59.4419 68.4008 58.3112C68.4008 57.1804 69.3193 56.2606 70.4483 56.2606C71.5773 56.2606 72.4958 57.1805 72.4958 58.3112C72.4958 59.4419 71.5772 60.3619 70.4483 60.3619Z" fill="#8EF6F6"/>
<path d="M70.448 12.1537C67.706 12.1537 65.4753 14.3877 65.4753 17.1339C65.4753 17.9744 65.6851 18.7663 66.0538 19.4615L62.1534 23.3678H46.1498C44.1166 22.2036 41.8333 21.4638 39.4395 21.2463V18.5986H54.8616C55.3943 18.5986 55.8849 18.3085 56.1421 17.8415L60.5866 9.77474C61.1895 10.0352 61.8531 10.1802 62.5505 10.1802C65.2925 10.1802 67.5231 7.94617 67.5231 5.20002C67.5231 2.45401 65.2925 0.219971 62.5505 0.219971C59.8085 0.219971 57.5779 2.45401 57.5779 5.20017C57.5779 6.16052 57.8514 7.05745 58.3234 7.81888L53.9982 15.669H39.4395V1.69083C39.4395 0.88179 38.7845 0.226123 37.977 0.226123H31.4189C30.6112 0.226123 29.9564 0.881936 29.9564 1.69083V6.22351C26.9346 6.99021 24.0575 8.18421 21.3763 9.78471L18.1884 6.59207C17.914 6.31741 17.5419 6.16301 17.1539 6.16301C16.766 6.16301 16.3939 6.31755 16.1197 6.59251L6.87541 15.8577C6.30455 16.4298 6.30469 17.3568 6.8757 17.9287L10.06 21.118C8.46207 23.8035 7.26988 26.6848 6.50449 29.7111H2.00106C1.19339 29.7111 0.538574 30.3669 0.538574 31.1758V44.274C0.538574 45.083 1.19354 45.7387 2.00106 45.7387H6.50478C7.27003 48.7649 8.46222 51.6463 10.0603 54.3317L6.876 57.5209C6.30499 58.0928 6.30484 59.0198 6.8757 59.5919L16.12 68.8571C16.3942 69.1319 16.7663 69.2865 17.1542 69.2866C17.1543 69.2866 17.1543 69.2866 17.1545 69.2866C17.5424 69.2866 17.9143 69.1322 18.1887 68.8575L21.3765 65.6651C24.0579 67.2654 26.9349 68.4595 29.9564 69.2262V73.7518C29.9564 74.5605 30.6108 75.216 31.418 75.2165H37.976H37.9769C38.3646 75.2165 38.7366 75.0659 39.0108 74.7914C39.2852 74.5166 39.4395 74.1439 39.4395 73.7553V59.709H53.9956L58.3251 67.6184C57.8521 68.3804 57.578 69.2784 57.578 70.2398C57.578 72.9859 59.8087 75.22 62.5507 75.22C65.2926 75.22 67.5233 72.9859 67.5233 70.2398C67.5233 67.4936 65.2925 65.2596 62.5505 65.2596C61.8549 65.2596 61.1925 65.4039 60.5907 65.6634L56.1442 57.54C55.8875 57.0709 55.3958 56.7793 54.8618 56.7793H39.4392V52.8358C39.4392 52.0267 38.7843 51.3711 37.9767 51.3711C30.4635 51.3711 24.3512 45.2494 24.3512 37.7248C24.3512 30.2913 30.3168 24.2278 37.7048 24.0821C37.7881 24.0969 37.8733 24.106 37.9609 24.106C43.6215 24.106 48.7502 27.6743 50.7231 32.9851C50.9422 33.575 51.5003 33.9396 52.0939 33.9396C52.2633 33.9396 52.4357 33.9099 52.6038 33.8474C53.3608 33.5652 53.7462 32.7221 53.4645 31.9638C52.6649 29.8112 51.4369 27.8963 49.9021 26.2972H62.7591C63.147 26.2972 63.5189 26.1428 63.7933 25.8682L68.1215 21.5334C68.8163 21.9034 69.6078 22.1139 70.448 22.1139C73.19 22.1139 75.4206 19.8799 75.4206 17.1337C75.4206 14.3877 73.1898 12.1537 70.448 12.1537ZM62.5505 3.14952C63.6797 3.14952 64.598 4.06945 64.598 5.20017C64.598 6.33088 63.6795 7.25081 62.5505 7.25081C61.4215 7.25081 60.503 6.33088 60.503 5.20017C60.503 4.06945 61.4214 3.14952 62.5505 3.14952ZM62.5505 68.1894C63.6797 68.1894 64.598 69.1094 64.598 70.2401C64.598 71.3708 63.6794 72.2907 62.5505 72.2907C61.4214 72.2907 60.503 71.3708 60.503 70.2401C60.503 69.1094 61.4214 68.1894 62.5505 68.1894ZM36.5144 21.2133C28.0711 21.9575 21.4261 29.0788 21.4261 37.725C21.4261 46.3711 28.0708 53.4925 36.5143 54.2366V72.29L32.8812 72.2879V68.0651C32.8812 67.3747 32.3999 66.778 31.7259 66.633C28.2416 65.8833 24.9545 64.5191 21.9557 62.5782C21.3768 62.2036 20.6153 62.2845 20.1277 62.7727L17.1546 65.7505L9.97794 58.5575L12.9485 55.5823C13.4359 55.0941 13.5169 54.3315 13.1426 53.7516C11.2048 50.7482 9.84265 47.4562 9.09437 43.9667C8.94956 43.2917 8.35384 42.8096 7.6645 42.8096H3.46354V32.6409H7.66435C8.35384 32.6409 8.94942 32.1587 9.09422 31.4838C9.84265 27.9943 11.2046 24.7023 13.1425 21.6989C13.5168 21.1191 13.4357 20.3564 12.9484 19.8681L9.97779 16.893L17.1545 9.70004L20.1276 12.6778C20.6152 13.1662 21.3766 13.2469 21.9555 12.8723C24.9542 10.9315 28.2413 9.56718 31.7258 8.81747C32.3997 8.67245 32.8811 8.07581 32.8811 7.38543V3.15568H36.5141V21.2133H36.5144ZM70.448 19.1844C69.3188 19.1844 68.4004 18.2644 68.4004 17.1337C68.4004 16.003 69.319 15.0831 70.448 15.0831C71.577 15.0831 72.4955 16.003 72.4955 17.1337C72.4955 18.2644 71.577 19.1844 70.448 19.1844Z" fill="#8EF6F6"/>
<path d="M70.4481 32.7629C68.2149 32.7629 66.3213 34.2449 65.6953 36.2784H61.3802C60.5725 36.2784 59.9177 36.9342 59.9177 37.7431C59.9177 38.552 60.5727 39.2078 61.3802 39.2078H65.6951C66.3211 41.2412 68.2148 42.7233 70.4479 42.7233C73.1899 42.7233 75.4206 40.4893 75.4206 37.7431C75.4207 34.997 73.1899 32.7629 70.4481 32.7629ZM70.4481 39.7938C69.3189 39.7938 68.4005 38.8739 68.4005 37.7431C68.4005 36.6124 69.3191 35.6925 70.4481 35.6925C71.5771 35.6925 72.4956 36.6124 72.4956 37.7431C72.4956 38.8739 71.5769 39.7938 70.4481 39.7938Z" fill="#8EF6F6"/>
</svg>
