<svg width="67" height="65" viewBox="0 0 67 65" fill="none" xmlns="http://www.w3.org/2000/svg">
<path d="M1.90735e-06 32.5C1.90735e-06 9.53674e-07 1.90735e-06 9.53674e-07 33.5 9.53674e-07C52.0015 9.53674e-07 67 14.5507 67 32.5C67 50.4493 52.0015 65 33.5 65C14.9985 65 1.90735e-06 50.4493 1.90735e-06 32.5Z" fill="#8EF6F6"/>
<path d="M35.7311 21.6667H47.0143L47.0085 27.3265H35.7252L35.7311 21.6667Z" fill="#333646"/>
<path d="M43.3366 30.0112L44.6509 30.0112H47.0117L47.0175 43.8964L43.3366 43.8963V30.0112Z" fill="#333646"/>
<path d="M19.9828 30.0112H23.6568V43.9035H19.9828V30.0112Z" fill="#333646"/>
<path d="M19.9824 21.6738L24.4484 21.6667L24.4485 27.3337H19.9824V21.6738Z" fill="#333646"/>
<path d="M32.0541 27.3337C32.0541 26.7233 32.0572 25.3898 31.4781 24.5357C31.0957 23.9718 30.5352 23.4595 29.8287 23.0279C29.1221 22.5963 28.2834 22.254 27.3602 22.0204C26.4371 21.7869 25.4476 21.6667 24.4484 21.6667L24.4485 27.3337H28.3801H32.0541Z" fill="#333646"/>
<path d="M23.6568 35.1493C24.656 35.1493 26.4374 35.2092 27.3606 34.9676C28.2837 34.726 29.1225 34.3718 29.829 33.9254C30.5356 33.4789 31.096 32.9489 31.4784 32.3656C31.8608 31.7823 32.0544 30.6425 32.0544 30.0112H28.3804H23.6568V35.1493Z" fill="#333646"/>
</svg>
