<svg width="21" height="31" viewBox="0 0 21 31" fill="none" xmlns="http://www.w3.org/2000/svg">
<path d="M15.75 2.58333C17.1977 2.58333 18.375 3.74196 18.375 5.16667V20.6667C18.375 24.9408 14.8431 28.4167 10.5 28.4167C6.15694 28.4167 2.625 24.9408 2.625 20.6667V5.16667C2.625 3.74196 3.80231 2.58333 5.25 2.58333H15.75ZM21 5.16667C21 2.31337 18.6493 0 15.75 0H5.25C2.35069 0 0 2.31337 0 5.16667V20.6667C0 26.3732 4.70137 31 10.5 31C16.2986 31 21 26.3732 21 20.6667V5.16667ZM11.8125 6.45833C11.8125 5.74533 11.2258 5.16667 10.5 5.16667C9.77419 5.16667 9.1875 5.74533 9.1875 6.45833V11.625C9.1875 12.338 9.77419 12.9167 10.5 12.9167C11.2258 12.9167 11.8125 12.338 11.8125 11.625V6.45833Z" fill="#8EF6F6"/>
</svg>
