<svg width="76" height="76" viewBox="0 0 76 76" fill="none" xmlns="http://www.w3.org/2000/svg">
<path d="M10.533 13.97H13.029V16.47H10.533V13.97Z" fill="#8EF6F6"/>
<path d="M15.5249 13.97H18.021V16.47H15.5249V13.97Z" fill="#8EF6F6"/>
<path d="M20.5171 13.97H23.0132V16.47H20.5171V13.97Z" fill="#8EF6F6"/>
<path d="M19.2688 48.97H26.757V51.47H19.2688V48.97Z" fill="#8EF6F6"/>
<path d="M29.2534 48.97H31.7495V51.47H29.2534V48.97Z" fill="#8EF6F6"/>
<path d="M55.4618 65.22C55.1309 65.2199 54.8135 65.0882 54.5795 64.8537L50.8354 61.1037C50.6014 60.8693 50.47 60.5514 50.47 60.22C50.47 59.8885 50.6014 59.5706 50.8354 59.3362L54.5795 55.5862C54.8149 55.3585 55.1301 55.2326 55.4574 55.2354C55.7846 55.2382 56.0976 55.3697 56.329 55.6015C56.5604 55.8332 56.6917 56.1467 56.6945 56.4745C56.6973 56.8022 56.5715 57.118 56.3442 57.3537L53.4825 60.22L56.3442 63.0862C56.5187 63.2611 56.6375 63.4838 56.6856 63.7262C56.7338 63.9686 56.7091 64.2199 56.6146 64.4483C56.5202 64.6767 56.3603 64.8719 56.1551 65.0092C55.9499 65.1466 55.7086 65.2199 55.4618 65.22Z" fill="#8EF6F6"/>
<path d="M65.446 65.22C65.1992 65.2199 64.958 65.1466 64.7528 65.0092C64.5476 64.8719 64.3877 64.6767 64.2932 64.4483C64.1988 64.2199 64.1741 63.9686 64.2222 63.7262C64.2703 63.4838 64.3892 63.2611 64.5636 63.0862L67.4254 60.22L64.5636 57.3537C64.3363 57.118 64.2105 56.8022 64.2134 56.4745C64.2162 56.1467 64.3475 55.8332 64.5789 55.6015C64.8102 55.3697 65.1233 55.2382 65.4505 55.2354C65.7777 55.2326 66.093 55.3585 66.3284 55.5862L70.0725 59.3362C70.3064 59.5706 70.4379 59.8885 70.4379 60.22C70.4379 60.5514 70.3064 60.8693 70.0725 61.1037L66.3284 64.8537C66.0944 65.0882 65.777 65.2199 65.446 65.22Z" fill="#8EF6F6"/>
<path d="M59.2063 67.72C59.1225 67.7206 59.0388 67.7122 58.9567 67.695C58.7961 67.6622 58.6435 67.5981 58.5076 67.5062C58.3718 67.4143 58.2553 67.2965 58.1649 67.1595C58.0745 67.0225 58.0119 66.8691 57.9808 66.7079C57.9496 66.5467 57.9505 66.3809 57.9833 66.22L60.4793 53.72C60.5065 53.5545 60.5667 53.3961 60.6563 53.2543C60.7459 53.1126 60.863 52.9903 61.0008 52.8949C61.1385 52.7994 61.2941 52.7327 61.4581 52.6987C61.6221 52.6648 61.7913 52.6642 61.9556 52.6971C62.1198 52.73 62.2758 52.7957 62.4142 52.8903C62.5526 52.9848 62.6705 53.1063 62.761 53.2475C62.8515 53.3887 62.9127 53.5466 62.941 53.712C62.9692 53.8774 62.964 54.0467 62.9255 54.21L60.4294 66.71C60.3739 66.9942 60.2216 67.2503 59.9985 67.4345C59.7755 67.6187 59.4955 67.7196 59.2063 67.72Z" fill="#8EF6F6"/>
<path d="M13.0293 26.47V56.47C13.0293 56.8015 13.1608 57.1194 13.3948 57.3539C13.6289 57.5883 13.9463 57.72 14.2773 57.72C14.6083 57.72 14.9258 57.5883 15.1598 57.3539C15.3939 57.1194 15.5254 56.8015 15.5254 56.47V26.47C15.5254 26.1385 15.3939 25.8205 15.1598 25.5861C14.9258 25.3517 14.6083 25.22 14.2773 25.22C13.9463 25.22 13.6289 25.3517 13.3948 25.5861C13.1608 25.8205 13.0293 26.1385 13.0293 26.47Z" fill="#8EF6F6"/>
<path d="M24.0515 24.5262C23.9606 24.3896 23.8437 24.2723 23.7074 24.181C23.5712 24.0896 23.4184 24.0261 23.2576 23.9939C23.0969 23.9618 22.9314 23.9617 22.7706 23.9936C22.6098 24.0255 22.4569 24.0888 22.3205 24.1799L18.5764 26.6799C18.4055 26.7941 18.2653 26.9487 18.1684 27.1302C18.0715 27.3116 18.0208 27.5142 18.0208 27.7199C18.0208 27.9257 18.0715 28.1283 18.1684 28.3097C18.2653 28.4911 18.4055 28.6458 18.5764 28.7599L22.3205 31.2599C22.4569 31.351 22.6098 31.4144 22.7706 31.4463C22.9314 31.4782 23.0969 31.478 23.2576 31.4459C23.4184 31.4137 23.5712 31.3502 23.7074 31.2589C23.8436 31.1676 23.9606 31.0503 24.0515 30.9137C24.1425 30.7771 24.2057 30.6239 24.2376 30.4629C24.2694 30.3019 24.2693 30.1361 24.2372 29.9751C24.2051 29.8141 24.1416 29.661 24.0505 29.5246C23.9593 29.3882 23.8422 29.271 23.7058 29.1799L21.5155 27.7199L23.7021 26.2599C23.8388 26.1691 23.9562 26.0523 24.0478 25.916C24.1393 25.7797 24.2031 25.6266 24.2356 25.4656C24.268 25.3046 24.2685 25.1387 24.2369 24.9776C24.2053 24.8164 24.1423 24.663 24.0515 24.5262Z" fill="#8EF6F6"/>
<path d="M31.9591 30.9139C32.05 31.0505 32.167 31.1678 32.3032 31.2591C32.4394 31.3504 32.5923 31.414 32.753 31.4461C32.9137 31.4783 33.0792 31.4784 33.24 31.4465C33.4008 31.4146 33.5538 31.3513 33.6901 31.2601L37.4342 28.7601C37.6052 28.646 37.7453 28.4913 37.8422 28.3099C37.9392 28.1285 37.9899 27.9259 37.9899 27.7201C37.9899 27.5144 37.9392 27.3118 37.8422 27.1304C37.7453 26.9489 37.6052 26.7943 37.4342 26.6801L33.6901 24.1801C33.4147 23.9961 33.0776 23.9293 32.753 23.9942C32.4284 24.0591 32.1428 24.2506 31.9591 24.5264C31.7754 24.8022 31.7086 25.1398 31.7734 25.465C31.8383 25.7901 32.0294 26.0761 32.3048 26.2601L34.4951 27.7201L32.3085 29.1801C32.1719 29.2709 32.0544 29.3878 31.9629 29.5241C31.8713 29.6604 31.8075 29.8134 31.775 29.9745C31.7426 30.1355 31.7421 30.3013 31.7737 30.4625C31.8053 30.6237 31.8683 30.7771 31.9591 30.9139Z" fill="#8EF6F6"/>
<path d="M29.6477 22.7836C29.4922 22.7317 29.328 22.711 29.1645 22.7226C29.0009 22.7343 28.8413 22.7781 28.6947 22.8516C28.5481 22.9251 28.4174 23.0268 28.31 23.1509C28.2026 23.275 28.1207 23.419 28.069 23.5748L25.5729 31.0748C25.4683 31.3898 25.4929 31.7334 25.6413 32.0302C25.7897 32.327 26.0497 32.5526 26.3642 32.6573C26.6786 32.7621 27.0217 32.7375 27.318 32.5888C27.6143 32.4402 27.8396 32.1798 27.9442 31.8648L30.4402 24.3648C30.492 24.2089 30.5126 24.0443 30.5008 23.8804C30.4889 23.7165 30.445 23.5565 30.3714 23.4096C30.2977 23.2628 30.1959 23.1319 30.0718 23.0244C29.9476 22.917 29.8035 22.8352 29.6477 22.7836Z" fill="#8EF6F6"/>
<path d="M19.2688 33.97H26.757V36.47H19.2688V33.97Z" fill="#8EF6F6"/>
<path d="M29.2534 33.97H31.7495V36.47H29.2534V33.97Z" fill="#8EF6F6"/>
<path d="M24.2615 38.97H39.2379V41.47H24.2615V38.97Z" fill="#8EF6F6"/>
<path d="M46.7261 36.47H57.9584V38.97H46.7261V36.47Z" fill="#8EF6F6"/>
<path d="M24.2615 43.97H26.7575V46.47H24.2615V43.97Z" fill="#8EF6F6"/>
<path d="M29.2534 43.97H44.2298V46.47H29.2534V43.97Z" fill="#8EF6F6"/>
<path d="M46.7261 41.47H51.7182V43.97H46.7261V41.47Z" fill="#8EF6F6"/>
<path d="M41.7339 36.47H44.23V38.97H41.7339V36.47Z" fill="#8EF6F6"/>
<path d="M60.4542 45.22C57.4921 45.22 54.5966 46.0997 52.1338 47.7479C49.6709 49.3961 47.7513 51.7388 46.6178 54.4797C45.4843 57.2206 45.1877 60.2366 45.7656 63.1463C46.3434 66.056 47.7698 68.7288 49.8643 70.8266C51.9588 72.9244 54.6273 74.353 57.5324 74.9318C60.4376 75.5105 63.4488 75.2135 66.1854 74.0782C68.922 72.9429 71.261 71.0203 72.9066 68.5535C74.5523 66.0868 75.4306 63.1867 75.4306 60.22C75.4263 56.243 73.8471 52.4302 71.0394 49.6181C68.2317 46.806 64.4249 45.2243 60.4542 45.22ZM60.4542 72.72C57.9858 72.72 55.5729 71.9869 53.5205 70.6133C51.4681 69.2398 49.8685 67.2876 48.9239 65.0035C47.9793 62.7194 47.7321 60.2061 48.2137 57.7813C48.6952 55.3566 49.8839 53.1293 51.6293 51.3811C53.3747 49.633 55.5985 48.4425 58.0194 47.9602C60.4404 47.4778 62.9497 47.7254 65.2302 48.6715C67.5107 49.6176 69.4599 51.2197 70.8312 53.2753C72.2026 55.331 72.9345 57.7477 72.9345 60.22C72.9309 63.5341 71.6148 66.7114 69.2751 69.0548C66.9354 71.3982 63.7631 72.7163 60.4542 72.72Z" fill="#8EF6F6"/>
<path d="M42.9818 60.22H9.28487C8.95387 60.22 8.63643 60.0883 8.40238 59.8539C8.16833 59.6194 8.03684 59.3015 8.03684 58.97V20.22H60.4543V42.72C60.4543 43.0515 60.5858 43.3694 60.8198 43.6039C61.0539 43.8383 61.3713 43.97 61.7023 43.97C62.0333 43.97 62.3507 43.8383 62.5848 43.6039C62.8188 43.3694 62.9503 43.0515 62.9503 42.72V13.97C62.9503 12.9754 62.5559 12.0216 61.8537 11.3183C61.1516 10.6151 60.1992 10.22 59.2062 10.22H9.28487C8.29188 10.22 7.33955 10.6151 6.63739 11.3183C5.93524 12.0216 5.54077 12.9754 5.54077 13.97V58.97C5.54077 59.9645 5.93524 60.9184 6.63739 61.6216C7.33955 62.3249 8.29188 62.72 9.28487 62.72H42.9818C43.3128 62.72 43.6302 62.5883 43.8643 62.3539C44.0983 62.1194 44.2298 61.8015 44.2298 61.47C44.2298 61.1385 44.0983 60.8205 43.8643 60.5861C43.6302 60.3517 43.3128 60.22 42.9818 60.22ZM9.28487 12.72H59.2062C59.5372 12.72 59.8547 12.8517 60.0887 13.0861C60.3228 13.3205 60.4543 13.6385 60.4543 13.97V17.72H8.03684V13.97C8.03684 13.6385 8.16833 13.3205 8.40238 13.0861C8.63643 12.8517 8.95387 12.72 9.28487 12.72Z" fill="#8EF6F6"/>
<path d="M5.54072 75.22H0.548584V65.22H5.54072V67.72H3.04465V72.72H5.54072V75.22Z" fill="#8EF6F6"/>
<path d="M23.0131 75.22H18.021V72.72H20.5171V67.72H18.021V65.22H23.0131V75.22Z" fill="#8EF6F6"/>
<path d="M5.54077 68.97H8.03684V71.47H5.54077V68.97Z" fill="#8EF6F6"/>
<path d="M10.533 68.97H13.029V71.47H10.533V68.97Z" fill="#8EF6F6"/>
<path d="M15.5249 68.97H18.021V71.47H15.5249V68.97Z" fill="#8EF6F6"/>
<path d="M72.9346 0.219971H75.4306V7.71997H72.9346V0.219971Z" fill="#8EF6F6"/>
<path d="M69.1904 7.71997H67.9424C67.2804 7.71997 66.6455 7.45658 66.1774 6.98774C65.7093 6.5189 65.4463 5.88301 65.4463 5.21997V2.71997C65.4463 2.05693 65.7093 1.42104 66.1774 0.952204C66.6455 0.483363 67.2804 0.219971 67.9424 0.219971H69.1904C69.8524 0.219971 70.4873 0.483363 70.9554 0.952204C71.4235 1.42104 71.6865 2.05693 71.6865 2.71997V5.21997C71.6865 5.88301 71.4235 6.5189 70.9554 6.98774C70.4873 7.45658 69.8524 7.71997 69.1904 7.71997ZM67.9424 2.71997V5.21997H69.1904V2.71997H67.9424Z" fill="#8EF6F6"/>
<path d="M56.7099 7.71997H55.4619C54.7999 7.71997 54.165 7.45658 53.6969 6.98774C53.2288 6.5189 52.9658 5.88301 52.9658 5.21997V2.71997C52.9658 2.05693 53.2288 1.42104 53.6969 0.952204C54.165 0.483363 54.7999 0.219971 55.4619 0.219971H56.7099C57.3719 0.219971 58.0068 0.483363 58.4749 0.952204C58.943 1.42104 59.206 2.05693 59.206 2.71997V5.21997C59.206 5.88301 58.943 6.5189 58.4749 6.98774C58.0068 7.45658 57.3719 7.71997 56.7099 7.71997ZM55.4619 2.71997V5.21997H56.7099V2.71997H55.4619Z" fill="#8EF6F6"/>
<path d="M60.4541 0.219971H62.9502V7.71997H60.4541V0.219971Z" fill="#8EF6F6"/>
</svg>
