<svg width="62" height="76" viewBox="0 0 62 76" fill="none" xmlns="http://www.w3.org/2000/svg">
<path d="M18.6463 21.4284C18.6463 14.5664 24.1631 8.98402 30.9446 8.98402C33.3572 8.98402 35.6453 9.67361 37.6328 10.9844L31.6434 17.1461C31.4161 17.1077 31.1826 17.0874 30.9446 17.0874C28.5789 17.0874 26.6545 19.0346 26.6545 21.4284C26.6545 23.8223 28.5789 25.7695 30.9446 25.7695C33.3103 25.7695 35.2347 23.8223 35.2347 21.4284C35.2347 20.8242 35.1118 20.2482 34.8901 19.7248C34.9325 19.6779 34.9733 19.6281 35.0079 19.5722L39.8874 11.7616C39.9767 11.7011 40.0589 11.626 40.1298 11.5367C40.4996 11.0686 40.4247 10.3858 39.9622 10.0111C37.4155 7.94905 34.213 6.81348 30.9446 6.81348C22.9805 6.81348 16.5012 13.3697 16.5012 21.4284C16.5012 22.0282 16.9811 22.5137 17.5737 22.5137C18.1664 22.5137 18.6463 22.0282 18.6463 21.4284ZM30.9446 23.599C29.762 23.599 28.7995 22.6251 28.7995 21.4284C28.7995 20.2318 29.762 19.2579 30.9446 19.2579C32.1272 19.2579 33.0897 20.2318 33.0897 21.4284C33.0897 22.6251 32.1272 23.599 30.9446 23.599Z" fill="#8EF6F6"/>
<path d="M30.9018 34.8354C30.2197 34.8354 29.6675 35.2964 29.6675 35.8657V37.9261C29.6675 38.4954 30.2197 38.9563 30.9018 38.9563C31.5839 38.9563 32.1361 38.4954 32.1361 37.9261V35.8657C32.1361 35.2964 31.5839 34.8354 30.9018 34.8354Z" fill="#8EF6F6"/>
<path d="M44.6851 22.4726H46.7423C47.3107 22.4726 47.7709 22.1038 47.7709 21.6484C47.7709 21.193 47.3107 20.8242 46.7423 20.8242H44.6851C44.1167 20.8242 43.6565 21.193 43.6565 21.6484C43.6565 22.1038 44.1167 22.4726 44.6851 22.4726Z" fill="#8EF6F6"/>
<path d="M20.2039 30.9972L18.5 32.3631C18.0293 32.7397 18.0293 33.3513 18.5 33.7284C18.7353 33.917 19.0441 34.0111 19.3522 34.0111C19.6604 34.0111 19.9691 33.917 20.2045 33.7284L21.9084 32.3626C22.379 31.9854 22.379 31.3744 21.9084 30.9972C21.4377 30.6201 20.6745 30.6201 20.2039 30.9972Z" fill="#8EF6F6"/>
<path d="M39.895 32.363L41.5995 33.7284C41.8342 33.917 42.143 34.0111 42.4511 34.0111C42.7593 34.0111 43.068 33.917 43.3034 33.7284C43.7741 33.3512 43.7741 32.7397 43.3034 32.3625L41.5989 30.9971C41.1288 30.6204 40.3657 30.6199 39.895 30.9971C39.4243 31.3742 39.4243 31.9858 39.895 32.363Z" fill="#8EF6F6"/>
<path d="M60.6899 38.1321C60.0988 38.1321 59.6202 38.624 59.6202 39.2315V70.4557C59.6202 71.8701 58.5003 73.0211 57.1241 73.0211H52.132C51.5409 73.0211 51.0623 73.513 51.0623 74.1205C51.0623 74.7281 51.5409 75.22 52.132 75.22H57.1241C59.6804 75.22 61.7597 73.083 61.7597 70.4557V39.2315C61.7597 38.624 61.2811 38.1321 60.6899 38.1321Z" fill="#8EF6F6"/>
<path d="M57.0067 20.5813H52.3679C51.7578 9.2505 42.3632 0.219971 30.9017 0.219971C19.4402 0.219971 10.0456 9.2505 9.43546 20.5813H4.79671C2.1757 20.5813 0.0437012 22.7168 0.0437012 25.342V70.4592C0.0437012 73.0845 2.1757 75.22 4.79671 75.22H46.7694C47.3755 75.22 47.8663 74.7284 47.8663 74.1213C47.8663 73.5142 47.3755 73.0227 46.7694 73.0227H4.79671C3.38566 73.0227 2.2374 71.8726 2.2374 70.4592V30.8352H11.4121C11.7651 31.5928 12.161 32.3258 12.5963 33.0325H6.25917C5.25087 33.0325 4.43109 33.8536 4.43109 34.8635V68.9944C4.43109 70.0043 5.25087 70.8254 6.25917 70.8254H55.5442C56.5525 70.8254 57.3723 70.0043 57.3723 68.9944V34.8635C57.3723 33.8536 56.5525 33.0325 55.5442 33.0325H49.207C49.6424 32.3258 50.0377 31.5928 50.3913 30.8352H59.566V34.1311C59.566 34.7382 60.0567 35.2297 60.6628 35.2297C61.2689 35.2297 61.7597 34.7382 61.7597 34.1311V25.342C61.7597 22.7168 59.6277 20.5813 57.0067 20.5813ZM30.9017 2.41724C41.5462 2.41724 50.2062 11.0913 50.2062 21.7532C50.2062 32.4151 41.5462 41.0891 30.9017 41.0891C20.2571 41.0891 11.5972 32.4151 11.5972 21.7532C11.5972 11.0913 20.2571 2.41724 30.9017 2.41724ZM2.2374 28.6379V25.342C2.2374 23.9287 3.38566 22.7786 4.79671 22.7786H9.4286C9.52458 24.8179 9.90448 26.784 10.5306 28.6379H2.2374ZM47.6715 35.2297H55.1786V68.6282H6.62479V35.2297H14.1479C18.0914 40.1387 24.1361 43.2864 30.9017 43.2864C37.6679 43.2864 43.7125 40.1387 47.656 35.2292C47.6612 35.2292 47.6663 35.2297 47.6715 35.2297ZM51.2733 28.6379C51.8989 26.784 52.2788 24.8179 52.3748 22.7786H57.0067C58.4177 22.7786 59.566 23.9287 59.566 25.342V28.6379H51.2733Z" fill="#8EF6F6"/>
<path d="M33.5989 57.9124H30.6731C29.6645 57.9124 28.8445 58.7229 28.8445 59.7198V64.3467C28.8445 65.3436 29.6645 66.1541 30.6731 66.1541H33.5989C34.6075 66.1541 35.4275 65.3436 35.4275 64.3467V59.7198C35.4275 58.7229 34.6075 57.9124 33.5989 57.9124ZM33.2332 63.9852H31.0388V60.0812H33.2332V63.9852Z" fill="#8EF6F6"/>
<path d="M42.6504 53.7915H39.7246C38.716 53.7915 37.896 54.588 37.896 55.5677V64.3779C37.896 65.3576 38.716 66.1541 39.7246 66.1541H42.6504C43.659 66.1541 44.479 65.3576 44.479 64.3779V55.5677C44.479 54.588 43.659 53.7915 42.6504 53.7915ZM42.2847 64.0227H40.0903V55.923H42.2847V64.0227Z" fill="#8EF6F6"/>
<path d="M47.9536 66.154H50.8794C51.888 66.154 52.708 65.3447 52.708 64.3492V48.1785C52.708 47.1831 51.888 46.3738 50.8794 46.3738H47.9536C46.945 46.3738 46.125 47.1831 46.125 48.1785V64.3492C46.125 65.3447 46.945 66.154 47.9536 66.154ZM48.3193 48.5395H50.5137V63.9883H48.3193V48.5395Z" fill="#8EF6F6"/>
<path d="M21.2108 64.5056H10.1457C9.5652 64.5056 9.09521 64.8743 9.09521 65.3298C9.09521 65.7852 9.5652 66.154 10.1457 66.154H21.2108C21.7913 66.154 22.2613 65.7852 22.2613 65.3298C22.2613 64.8743 21.7913 64.5056 21.2108 64.5056Z" fill="#8EF6F6"/>
<path d="M10.156 59.5605C9.56979 59.5605 9.09521 60.1136 9.09521 60.7968C9.09521 61.48 9.56979 62.0331 10.156 62.0331H17.0861C17.6723 62.0331 18.1469 61.48 18.1469 60.7968C18.1469 60.1136 17.6723 59.5605 17.0861 59.5605H10.156Z" fill="#8EF6F6"/>
<path d="M21.4384 56.676C21.4384 55.9928 20.9453 55.4397 20.3363 55.4397H10.1973C9.58828 55.4397 9.09521 55.9928 9.09521 56.676C9.09521 57.3591 9.58828 57.9122 10.1973 57.9122H20.3363C20.9453 57.9122 21.4384 57.3591 21.4384 56.676Z" fill="#8EF6F6"/>
<path d="M10.156 52.9672H17.0861C17.6723 52.9672 18.1469 52.5985 18.1469 52.143C18.1469 51.6876 17.6723 51.3188 17.0861 51.3188H10.156C9.56979 51.3188 9.09521 51.6876 9.09521 52.143C9.09521 52.5985 9.56979 52.9672 10.156 52.9672Z" fill="#8EF6F6"/>
<path d="M10.1973 48.8463H20.3363C20.9453 48.8463 21.4384 48.2932 21.4384 47.61C21.4384 46.9269 20.9453 46.3738 20.3363 46.3738H10.1973C9.58828 46.3738 9.09521 46.9269 9.09521 47.61C9.09521 48.2932 9.58828 48.8463 10.1973 48.8463Z" fill="#8EF6F6"/>
</svg>
