<svg width="30" height="50" viewBox="0 0 30 50" fill="none" xmlns="http://www.w3.org/2000/svg">
<path d="M20 5C20 7.76142 17.7614 10 15 10C12.2386 10 10 7.76142 10 5C10 2.23858 12.2386 0 15 0C17.7614 0 20 2.23858 20 5ZM11.4376 5C11.4376 6.96748 13.0325 8.56244 15 8.56244C16.9675 8.56244 18.5624 6.96748 18.5624 5C18.5624 3.03252 16.9675 1.43756 15 1.43756C13.0325 1.43756 11.4376 3.03252 11.4376 5Z" fill="#8EF6F6"/>
<path d="M24.6949 25.3051C25.1984 24.8016 26.0196 24.7983 26.478 25.3431C28.1016 27.2728 29.2171 29.5867 29.7118 32.0736C30.2906 34.9834 29.9935 37.9994 28.8582 40.7403C27.7229 43.4811 25.8003 45.8238 23.3336 47.472C20.8668 49.1203 17.9667 50 15 50C12.0333 50 9.13318 49.1203 6.66644 47.472C4.19971 45.8238 2.27712 43.4811 1.14181 40.7402C0.00649173 37.9994 -0.290558 34.9834 0.288222 32.0736C0.782911 29.5867 1.89843 27.2728 3.52198 25.3431C3.9804 24.7983 4.80156 24.8016 5.30506 25.3051V25.3051C5.80855 25.8085 5.80255 26.6211 5.35393 27.174C4.08589 28.737 3.21238 30.5901 2.81723 32.5767C2.33794 34.9862 2.58393 37.4838 3.52408 39.7535C4.46423 42.0232 6.05631 43.9632 8.09901 45.3281C10.1417 46.6929 12.5433 47.4214 15 47.4214C17.4567 47.4214 19.8583 46.6929 21.901 45.3281C23.9437 43.9632 25.5358 42.0232 26.4759 39.7535C27.4161 37.4838 27.6621 34.9862 27.1828 32.5767C26.7876 30.5901 25.9141 28.737 24.6461 27.174C24.1975 26.6211 24.1915 25.8085 24.6949 25.3051V25.3051Z" fill="#8EF6F6"/>
<rect x="14" y="13" width="2" height="4" rx="1" fill="#8EF6F6"/>
<rect x="14" y="19" width="2" height="4" rx="1" fill="#8EF6F6"/>
<path d="M14.2929 42.7071C14.6834 43.0976 15.3166 43.0976 15.7071 42.7071L22.0711 36.3431C22.4616 35.9526 22.4616 35.3195 22.0711 34.9289C21.6805 34.5384 21.0474 34.5384 20.6569 34.9289L15 40.5858L9.34315 34.9289C8.95262 34.5384 8.31946 34.5384 7.92893 34.9289C7.53841 35.3195 7.53841 35.9526 7.92893 36.3431L14.2929 42.7071ZM14 26L14 42H16V26H14Z" fill="#8EF6F6"/>
<circle cx="15" cy="26" r="1" fill="#8EF6F6"/>
</svg>
